<svg xmlns="http://www.w3.org/2000/svg" xmlns:xlink="http://www.w3.org/1999/xlink" width="40" zoomAndPan="magnify" viewBox="0 0 30 30.000001" height="40" preserveAspectRatio="xMidYMid meet" version="1.0"><defs><clipPath id="df08d431f9"><path d="M 0.484375 0 L 29.515625 0 L 29.515625 29.03125 L 0.484375 29.03125 Z M 0.484375 0 " clip-rule="nonzero"/></clipPath><clipPath id="84fb6e6311"><path d="M 1.933594 0 L 28.066406 0 C 28.867188 0 29.515625 0.648438 29.515625 1.453125 L 29.515625 27.582031 C 29.515625 28.382812 28.867188 29.03125 28.066406 29.03125 L 1.933594 29.03125 C 1.132812 29.03125 0.484375 28.382812 0.484375 27.582031 L 0.484375 1.453125 C 0.484375 0.648438 1.132812 0 1.933594 0 Z M 1.933594 0 " clip-rule="nonzero"/></clipPath><clipPath id="854e378d5b"><path d="M 2.257812 0 L 27.660156 0 L 27.660156 29.03125 L 2.257812 29.03125 Z M 2.257812 0 " clip-rule="nonzero"/></clipPath></defs><g clip-path="url(#df08d431f9)"><g clip-path="url(#84fb6e6311)"><path fill="#ffffff" d="M 0.484375 0 L 29.515625 0 L 29.515625 29.03125 L 0.484375 29.03125 Z M 0.484375 0 " fill-opacity="1" fill-rule="nonzero"/></g></g><g clip-path="url(#854e378d5b)"><path fill="#000000" d="M 16.332031 18.566406 C 16.347656 18.707031 16.179688 18.78125 16.082031 18.683594 C 15.03125 17.648438 12.3125 16.148438 11.089844 15.820312 C 12.175781 16.414062 13.792969 17.421875 14.335938 17.929688 C 14.03125 17.839844 13.714844 17.9375 13.714844 17.9375 C 14.152344 18.273438 16.160156 19.726562 17.167969 21.269531 C 17.195312 21.3125 17.265625 21.289062 17.261719 21.234375 C 17.054688 19.46875 16.382812 17.902344 16.183594 17.429688 C 16.242188 17.730469 16.296875 18.214844 16.332031 18.566406 Z M 23.535156 17.585938 C 25.851562 17.585938 27.726562 19.972656 27.726562 22.914062 C 27.726562 25.859375 25.851562 28.246094 23.535156 28.246094 C 21.878906 28.246094 20.445312 27.019531 19.765625 25.242188 C 17.714844 25.347656 12.449219 25.617188 10.855469 25.722656 C 10.136719 27.675781 8.582031 29.03125 6.773438 29.03125 C 4.480469 29.03125 2.589844 26.855469 2.308594 24.039062 C 2.285156 23.800781 2.269531 23.558594 2.269531 23.308594 C 2.269531 20.605469 3.746094 18.339844 5.734375 17.742188 C 5.296875 17.429688 4.9375 16.761719 4.789062 16.144531 L 5.234375 16.117188 C 4.921875 15.769531 4.445312 14.976562 4.097656 14.300781 C 3.796875 13.710938 3.945312 12.980469 4.460938 12.5625 C 5.003906 12.128906 5.78125 11.707031 6.675781 11.476562 C 6.894531 10.851562 7.1875 10.304688 7.570312 9.898438 C 8.246094 9.175781 9.128906 8.777344 10.0625 8.777344 C 10.117188 8.777344 10.167969 8.78125 10.222656 8.78125 C 10.222656 8.695312 10.257812 8.589844 10.382812 8.503906 C 10.589844 8.359375 10.683594 8.019531 10.644531 7.652344 C 10.605469 7.285156 10.8125 7.152344 11.011719 6.96875 C 11.207031 6.785156 11.496094 6.390625 11.652344 5.933594 C 11.8125 5.472656 12.191406 5.078125 12.585938 5.238281 C 11.535156 1.917969 13.714844 0 15.289062 0 C 16.917969 0 17.992188 1.0625 17.992188 2.757812 C 17.992188 4.449219 17.5625 5.34375 16.851562 5.984375 C 17.335938 5.917969 17.730469 5.578125 17.835938 5.238281 C 18.019531 5.367188 18.308594 5.695312 18.308594 5.695312 L 19.253906 6.457031 L 19.910156 6.773438 L 19.960938 7.375 L 20.59375 8.6875 L 20.722656 9.632812 L 21.089844 10.34375 L 20.828125 10.945312 L 21.089844 11.285156 L 21.230469 11.902344 C 22.269531 11.648438 26.027344 10.722656 27.019531 10.480469 C 27.121094 10.457031 27.207031 10.554688 27.167969 10.652344 L 26.6875 11.855469 C 26.660156 11.929688 26.601562 11.988281 26.53125 12.023438 L 25.644531 12.457031 L 26.039062 13.082031 C 26.070312 13.128906 26.0625 13.195312 26.023438 13.238281 L 25.015625 14.34375 L 25.515625 14.765625 C 25.574219 14.816406 25.617188 14.882812 25.640625 14.957031 L 25.855469 15.683594 L 26.875 15.683594 C 26.921875 15.542969 27.042969 15.445312 27.179688 15.445312 C 27.363281 15.445312 27.507812 15.613281 27.507812 15.820312 C 27.507812 16.03125 27.363281 16.199219 27.179688 16.199219 C 27.042969 16.199219 26.921875 16.101562 26.875 15.960938 L 25.9375 15.960938 L 26.472656 17.757812 C 26.484375 17.804688 26.449219 17.847656 26.402344 17.847656 L 26.074219 17.847656 C 26.050781 17.847656 26.03125 17.839844 26.019531 17.824219 L 24.535156 15.960938 L 23.808594 15.960938 C 23.765625 16.082031 23.65625 16.167969 23.53125 16.167969 C 23.367188 16.167969 23.230469 16.015625 23.230469 15.820312 C 23.230469 15.628906 23.367188 15.472656 23.53125 15.472656 C 23.65625 15.472656 23.765625 15.5625 23.808594 15.683594 L 24.316406 15.683594 L 23.792969 15.027344 L 22.691406 15.449219 L 22.007812 16.5625 L 19.828125 17.664062 C 20.070312 17.914062 20.671875 18.539062 20.882812 18.792969 C 21.589844 18.054688 22.492188 17.609375 23.472656 17.589844 C 23.492188 17.589844 23.515625 17.585938 23.535156 17.585938 Z M 23.535156 17.863281 C 22.554688 17.863281 21.65625 18.332031 20.96875 19.105469 C 21.285156 19.296875 21.695312 19.542969 22.140625 19.808594 C 22.671875 19.097656 23.386719 18.660156 24.171875 18.660156 C 25.8125 18.660156 27.148438 20.570312 27.148438 22.914062 C 27.222656 21.371094 26.882812 20.1875 26.308594 19.355469 C 25.601562 18.433594 24.617188 17.863281 23.535156 17.863281 Z M 21.617188 13.625 L 20.59375 14.898438 L 21.578125 14.476562 L 21.289062 14.425781 L 21.589844 14.015625 L 22.8125 13.453125 L 21.90625 13.441406 L 21.851562 13.113281 L 25.722656 11.785156 L 26.089844 11.011719 L 21.304688 12.230469 Z M 21.929688 15.121094 L 19.464844 16.304688 L 19.382812 16.40625 L 19.59375 16.585938 C 20.296875 16.300781 21.617188 15.800781 21.617188 15.800781 L 21.40625 16.117188 L 19.941406 16.882812 L 20.132812 17.046875 L 21.695312 16.328125 L 22.21875 15.554688 L 21.722656 15.488281 L 24.398438 14.449219 L 25.554688 13.261719 C 25.644531 13.167969 25.660156 13.019531 25.585938 12.910156 L 25.355469 12.5625 L 23.859375 13.320312 L 24.097656 13.453125 L 22.3125 14.359375 Z M 17.808594 6.089844 C 17.535156 6.089844 16.96875 6.550781 16.628906 6.601562 C 16.628906 6.601562 16.824219 7.085938 17.089844 7.046875 C 17.238281 7.027344 17.574219 6.746094 17.835938 6.863281 C 17.597656 7.703125 18.597656 7.457031 18.769531 7.71875 C 18.769531 7.71875 19.121094 7.480469 19.382812 7.585938 C 19.332031 7.167969 18.792969 6.996094 18.675781 6.640625 C 18.558594 6.289062 18.085938 6.089844 17.808594 6.089844 Z M 15.550781 11.761719 C 15.789062 11.761719 16.40625 12.074219 16.667969 12.351562 C 16.941406 12.179688 17.519531 11.050781 17.824219 10.710938 C 17.824219 10.710938 17.625 9.804688 17.207031 9.425781 C 17.207031 9.425781 17.375 10.25 17.3125 10.777344 C 17.179688 11.011719 16.941406 11.390625 16.601562 11.863281 C 16.601562 11.863281 15.867188 11.40625 15.511719 11.367188 C 15.191406 11.332031 12.648438 11.648438 11.535156 11.945312 C 12.207031 12.503906 12.890625 13.300781 13.085938 13.753906 L 13.207031 13.570312 C 13.253906 13.5 13.355469 13.476562 13.429688 13.523438 L 13.820312 13.761719 C 13.902344 13.816406 13.925781 13.929688 13.863281 14.003906 L 13.792969 14.097656 L 14.261719 14.355469 L 14.960938 13.808594 L 14.566406 13.808594 C 14.566406 13.808594 14.253906 13.492188 14.054688 13.347656 C 14.4375 13.308594 15.34375 12.980469 15.734375 12.640625 C 15.394531 12.3125 14.238281 12.089844 13.78125 11.957031 C 14.214844 11.929688 15.316406 11.761719 15.550781 11.761719 Z M 16.113281 15.71875 C 16.011719 15.34375 15.984375 14.886719 16.011719 14.570312 C 16.011719 14.570312 15.636719 14.890625 15.289062 15.09375 C 15.53125 15.277344 15.8125 15.488281 16.113281 15.71875 Z M 8.382812 20.394531 C 8.609375 20.433594 8.855469 20.558594 8.992188 20.730469 L 9.132812 20.277344 L 9.339844 19.621094 L 9.484375 19.167969 L 10.09375 17.222656 C 10.136719 17.085938 10.070312 16.941406 9.941406 16.882812 L 9.84375 16.839844 C 9.695312 16.777344 9.523438 16.855469 9.476562 17.007812 L 8.941406 18.664062 L 8.78125 19.15625 L 8.59375 19.738281 L 8.382812 20.398438 Z M 8.894531 23.308594 C 8.894531 22.980469 8.765625 22.714844 8.605469 22.714844 C 8.445312 22.714844 8.316406 22.980469 8.316406 23.308594 C 8.316406 23.640625 8.445312 23.90625 8.605469 23.90625 C 8.765625 23.90625 8.894531 23.636719 8.894531 23.308594 Z M 7.894531 16.621094 C 7.644531 16.792969 7.46875 16.648438 7.589844 16.371094 C 8.125 15.128906 9.460938 13.507812 10.546875 12.355469 C 11.152344 12.757812 11.695312 13.316406 12.171875 14.023438 C 12.207031 14.078125 12.203125 14.132812 12.191406 14.160156 C 12.1875 14.1875 12.164062 14.234375 12.105469 14.261719 C 10.996094 14.742188 9.355469 15.628906 7.894531 16.621094 Z M 13.558594 1.207031 C 12.738281 2.199219 13.070312 3.125 13.558594 3.125 C 14.332031 3.125 14.644531 2.554688 15.183594 1.785156 C 15.828125 0.867188 16.695312 0.695312 16.695312 0.695312 C 16 0.222656 14.421875 0.15625 13.558594 1.207031 Z M 13.902344 5.957031 C 13.527344 5.957031 13.25 5.8125 13.042969 5.589844 C 13.257812 5.957031 13.585938 6.222656 14.09375 6.222656 C 16.273438 6.222656 16.246094 3.820312 16.351562 2.679688 C 16.0625 2.945312 15.757812 3.160156 15.457031 3.335938 C 15.664062 3.375 15.914062 3.398438 16.039062 3.320312 C 16.042969 3.445312 16.03125 3.632812 16.011719 3.855469 C 15.917969 4.378906 15.75 4.902344 15.429688 5.296875 C 15.277344 4.726562 15.089844 4.023438 14.96875 3.589844 C 14.839844 3.644531 14.71875 3.691406 14.601562 3.734375 L 15.09375 5.617188 C 14.914062 5.742188 14.710938 5.839844 14.464844 5.898438 C 14.3125 5.210938 14.117188 4.328125 14.023438 3.886719 C 13.902344 3.910156 13.789062 3.925781 13.6875 3.933594 C 13.789062 4.378906 14.011719 5.273438 14.179688 5.941406 C 14.09375 5.953125 14 5.957031 13.902344 5.957031 Z M 14.003906 11.167969 C 13.910156 11.050781 13.269531 10.382812 12.925781 9.960938 C 12.925781 9.960938 12.925781 9.503906 12.796875 9.304688 C 12.789062 9.617188 12.582031 9.792969 12.433594 9.878906 C 12.464844 9.917969 12.496094 9.953125 12.523438 9.992188 C 12.660156 10.179688 12.621094 10.449219 12.433594 10.597656 C 12.09375 10.859375 11.714844 11.191406 11.320312 11.574219 C 11.992188 11.457031 13.527344 11.199219 14.003906 11.167969 Z M 11.050781 8.085938 C 11.105469 8.402344 10.929688 8.621094 10.726562 8.851562 C 10.90625 8.886719 11.078125 8.941406 11.242188 9.007812 C 11.339844 8.765625 11.59375 8.351562 11.757812 8.175781 C 11.96875 7.953125 11.46875 7.902344 11.601562 7.691406 C 11.734375 7.480469 11.875 7.21875 11.773438 6.945312 C 11.667969 6.667969 11.785156 6.628906 12.023438 6.589844 C 12.257812 6.550781 12.296875 6.445312 12.375 6.140625 C 12.453125 5.839844 12.664062 5.984375 12.902344 6 C 12.902344 6 12.757812 5.867188 12.652344 5.683594 C 12.363281 5.550781 12.085938 5.722656 12.074219 5.957031 C 12.0625 6.195312 11.824219 6.417969 11.824219 6.417969 C 11.824219 6.417969 11.574219 6.46875 11.5625 6.761719 C 11.546875 7.046875 11.351562 7.296875 11.128906 7.441406 C 10.90625 7.585938 10.984375 7.703125 11.050781 8.085938 Z M 10.421875 11.640625 C 9.34375 10.960938 7.742188 10.910156 7.015625 11.300781 C 7.03125 11.355469 7.027344 11.339844 7.042969 11.390625 C 7.371094 11.332031 7.707031 11.296875 8.050781 11.296875 C 8.855469 11.296875 9.699219 11.488281 10.503906 11.96875 C 11.128906 11.320312 11.734375 10.761719 12.253906 10.359375 C 12.3125 10.3125 12.328125 10.230469 12.285156 10.171875 C 11.777344 9.484375 10.945312 9.074219 10.0625 9.074219 C 9.8125 9.074219 9.5625 9.109375 9.324219 9.167969 C 9.203125 9.203125 9.097656 9.273438 9.023438 9.375 C 8.789062 9.6875 8.453125 10.148438 8.253906 10.460938 C 8.253906 10.460938 8.492188 10.632812 9.015625 10.316406 C 9.453125 10.054688 10.101562 10.367188 10.425781 10.765625 C 10.515625 10.878906 10.683594 10.882812 10.777344 10.773438 L 11.101562 10.382812 C 11.230469 10.230469 11.242188 10.015625 11.128906 9.851562 C 11.066406 9.761719 10.992188 9.664062 10.90625 9.582031 C 11.285156 9.699219 11.796875 10.132812 11.796875 10.132812 Z M 5.707031 14.035156 C 5.707031 14.21875 5.835938 15.609375 6.25 16.304688 C 6.082031 14.914062 6.152344 13.210938 6.566406 11.8125 C 6.386719 11.867188 6.214844 11.929688 6.046875 11.996094 C 5.941406 12.273438 5.777344 12.832031 5.746094 13.464844 C 5.621094 13.355469 5.648438 12.96875 5.386719 12.96875 C 5.238281 12.96875 5.046875 13.15625 5.046875 13.710938 C 5.046875 14.179688 5.226562 14.515625 5.425781 14.488281 C 5.585938 14.46875 5.582031 14.148438 5.707031 14.035156 Z M 3.464844 23.308594 C 3.894531 23.308594 4.25 22.988281 4.296875 22.5625 C 4.546875 20.398438 5.867188 18.742188 7.453125 18.742188 C 7.730469 18.742188 7.996094 18.792969 8.253906 18.886719 C 8.308594 18.667969 8.363281 18.476562 8.40625 18.3125 C 7.90625 18.039062 7.351562 17.886719 6.773438 17.886719 C 6.71875 17.886719 6.664062 17.886719 6.609375 17.890625 L 6.589844 17.933594 L 6.578125 17.890625 C 4.601562 18.007812 2.972656 19.894531 2.632812 22.351562 C 2.5625 22.855469 2.953125 23.308594 3.464844 23.308594 Z M 8.097656 19.460938 C 7.894531 19.378906 7.675781 19.335938 7.453125 19.335938 C 6.96875 19.335938 6.515625 19.539062 6.125 19.894531 C 6.363281 19.761719 6.621094 19.691406 6.890625 19.691406 C 7.265625 19.691406 7.621094 19.832031 7.933594 20.082031 C 7.992188 19.871094 8.046875 19.660156 8.097656 19.460938 Z M 4.96875 24.488281 C 5.261719 25.75 6.011719 26.648438 6.890625 26.648438 C 7.398438 26.648438 7.859375 26.347656 8.21875 25.851562 C 8.074219 25.914062 7.921875 25.949219 7.765625 25.949219 C 6.824219 25.949219 6.058594 24.765625 6.058594 23.308594 C 6.058594 21.855469 6.824219 20.671875 7.765625 20.671875 C 7.769531 20.671875 7.777344 20.671875 7.78125 20.671875 C 7.808594 20.570312 7.835938 20.46875 7.859375 20.367188 C 7.570312 20.113281 7.242188 19.972656 6.890625 19.972656 C 6.011719 19.972656 5.261719 20.871094 4.96875 22.128906 C 4.890625 22.503906 4.851562 22.898438 4.851562 23.308594 C 4.851562 23.71875 4.890625 24.117188 4.96875 24.488281 Z M 7.453125 27.28125 C 8.890625 27.28125 10.058594 25.5 10.058594 23.308594 C 10.058594 22.3125 9.8125 21.398438 9.414062 20.699219 L 9.09375 21.65625 C 9.332031 22.109375 9.472656 22.683594 9.472656 23.308594 C 9.472656 24.207031 9.183594 24.996094 8.738281 25.472656 C 8.320312 26.355469 7.648438 26.929688 6.890625 26.929688 C 6.621094 26.929688 6.363281 26.855469 6.125 26.726562 C 6.515625 27.078125 6.96875 27.28125 7.453125 27.28125 Z M 9.648438 19.992188 C 10.265625 20.824219 10.652344 22.003906 10.652344 23.308594 C 10.730469 21.691406 10.382812 20.445312 9.796875 19.554688 Z M 19.394531 23.734375 L 18.914062 24.253906 L 13.648438 24.570312 C 13.390625 24.585938 13.199219 24.335938 13.285156 24.09375 C 13.558594 23.300781 14.050781 21.8125 14.066406 21.246094 C 13.433594 22.382812 12.261719 24.550781 12 24.902344 C 11.84375 24.988281 11.570312 25.039062 11.359375 25.066406 C 11.402344 25.03125 11.445312 24.996094 11.484375 24.964844 C 11.851562 24.648438 13.425781 21.65625 13.742188 20.683594 C 13.742188 20.683594 13.558594 19.582031 13.214844 18.714844 C 13.835938 19.039062 16.3125 21.234375 17.625 22.523438 C 15.027344 18.847656 12.140625 17.046875 10.933594 16.878906 C 11.167969 16.246094 9.957031 16.15625 8.851562 16.351562 C 10 15.628906 11.175781 15.003906 12.050781 14.609375 C 14.113281 15.054688 16.558594 16.703125 17.3125 17.613281 L 17.023438 18.480469 C 17.25 18.996094 17.871094 21.707031 18.121094 22.824219 C 18.183594 23.105469 18.460938 23.28125 18.742188 23.21875 C 18.949219 23.171875 19.171875 23.117188 19.347656 23.050781 C 19.433594 23.019531 19.507812 22.988281 19.5625 22.957031 L 19.832031 23.136719 Z M 20.8125 23.164062 L 24.621094 23.316406 L 24.871094 23.859375 L 25.253906 23.867188 C 25.421875 23.871094 25.5625 23.742188 25.574219 23.574219 L 25.589844 23.398438 C 25.558594 23.417969 25.523438 23.429688 25.488281 23.429688 C 25.328125 23.429688 25.199219 23.226562 25.199219 22.980469 C 25.199219 22.730469 25.328125 22.53125 25.488281 22.53125 C 25.546875 22.53125 25.601562 22.558594 25.648438 22.605469 L 25.679688 22.140625 C 25.683594 22.117188 25.671875 22.09375 25.648438 22.085938 L 20.976562 19.609375 C 21.0625 20 21.222656 20.730469 21.34375 21.257812 C 21.367188 21.375 21.363281 21.492188 21.339844 21.605469 C 21.292969 21.804688 21.257812 22.011719 21.234375 22.21875 C 21.230469 22.261719 21.21875 22.296875 21.210938 22.335938 L 21.429688 22.347656 L 21.773438 22.367188 L 23.566406 22.46875 L 23.707031 22.121094 L 23.042969 21.402344 L 24.097656 21.949219 L 24.597656 22.207031 L 24.511719 22.890625 L 23.9375 22.859375 L 21.753906 22.746094 L 21.382812 22.730469 L 21.363281 22.890625 Z M 22.75 20.171875 C 23.386719 20.554688 24.042969 20.945312 24.570312 21.257812 C 24.71875 21.140625 24.882812 21.078125 25.058594 21.078125 C 25.105469 21.078125 25.148438 21.082031 25.195312 21.089844 C 24.847656 20.3125 24.28125 19.808594 23.648438 19.808594 C 23.320312 19.808594 23.015625 19.941406 22.75 20.171875 Z M 21.855469 24.015625 C 22.128906 25.1875 22.828125 26.023438 23.648438 26.023438 C 24.28125 26.023438 24.847656 25.519531 25.195312 24.742188 C 25.148438 24.75 25.105469 24.753906 25.058594 24.753906 C 24.636719 24.753906 24.269531 24.378906 24.074219 23.824219 L 21.820312 23.8125 C 21.832031 23.878906 21.84375 23.949219 21.855469 24.015625 Z M 24.171875 26.617188 C 25.507812 26.617188 26.597656 24.957031 26.597656 22.914062 C 26.597656 20.875 25.507812 19.214844 24.171875 19.214844 C 23.71875 19.214844 23.296875 19.40625 22.933594 19.734375 C 23.15625 19.613281 23.398438 19.546875 23.648438 19.546875 C 24.441406 19.546875 25.132812 20.222656 25.507812 21.230469 C 25.910156 21.511719 26.1875 22.160156 26.1875 22.914062 C 26.1875 23.667969 25.90625 24.320312 25.507812 24.601562 C 25.132812 25.609375 24.441406 26.285156 23.648438 26.285156 C 23.398438 26.285156 23.15625 26.21875 22.933594 26.097656 C 23.296875 26.425781 23.71875 26.617188 24.171875 26.617188 Z M 10.695312 13.011719 C 10.898438 13.132812 11.375 13.589844 11.613281 13.960938 C 11.671875 14.050781 11.632812 14.167969 11.535156 14.210938 C 10.882812 14.492188 9.242188 15.34375 8.398438 15.886719 C 8.316406 15.9375 8.21875 15.84375 8.269531 15.761719 C 8.539062 15.332031 8.972656 14.703125 9.347656 14.339844 C 9.488281 15.023438 10.933594 14.175781 11.0625 13.914062 C 11.195312 13.648438 10.851562 13.257812 10.695312 13.011719 Z M 10.695312 13.011719 " fill-opacity="1" fill-rule="evenodd"/></g></svg>