<svg xmlns="http://www.w3.org/2000/svg" xmlns:xlink="http://www.w3.org/1999/xlink" width="200" zoomAndPan="magnify" viewBox="0 0 150 74.999997" height="100" preserveAspectRatio="xMidYMid meet" version="1.0"><defs><g/><clipPath id="94042ecdc3"><path d="M 54.199219 0 L 95.449219 0 L 95.449219 47.25 L 54.199219 47.25 Z M 54.199219 0 " clip-rule="nonzero"/></clipPath></defs><g clip-path="url(#94042ecdc3)"><path fill="#ffffff" d="M 77.171875 30.308594 C 77.195312 30.535156 76.921875 30.660156 76.761719 30.5 C 75.046875 28.808594 70.609375 26.359375 68.613281 25.824219 C 70.382812 26.796875 73.027344 28.4375 73.910156 29.265625 C 73.410156 29.121094 72.898438 29.28125 72.898438 29.28125 C 73.613281 29.828125 76.886719 32.199219 78.535156 34.71875 C 78.582031 34.789062 78.695312 34.75 78.6875 34.660156 C 78.347656 31.777344 77.253906 29.21875 76.925781 28.453125 C 77.023438 28.945312 77.113281 29.730469 77.171875 30.308594 Z M 88.929688 28.707031 C 92.710938 28.707031 95.773438 32.601562 95.773438 37.40625 C 95.773438 42.210938 92.710938 46.105469 88.929688 46.105469 C 86.222656 46.105469 83.882812 44.105469 82.773438 41.203125 C 79.429688 41.375 70.832031 41.8125 68.230469 41.984375 C 67.058594 45.175781 64.515625 47.390625 61.566406 47.390625 C 57.824219 47.390625 54.738281 43.835938 54.277344 39.242188 C 54.238281 38.851562 54.214844 38.453125 54.214844 38.050781 C 54.214844 33.632812 56.628906 29.9375 59.871094 28.964844 C 59.15625 28.449219 58.570312 27.363281 58.328125 26.351562 L 59.058594 26.308594 C 58.542969 25.738281 57.765625 24.449219 57.199219 23.34375 C 56.707031 22.378906 56.949219 21.1875 57.792969 20.507812 C 58.675781 19.796875 59.949219 19.109375 61.410156 18.730469 C 61.765625 17.714844 62.246094 16.824219 62.867188 16.160156 C 63.96875 14.980469 65.414062 14.328125 66.9375 14.328125 C 67.023438 14.328125 67.109375 14.332031 67.195312 14.335938 C 67.195312 14.195312 67.253906 14.019531 67.457031 13.882812 C 67.796875 13.648438 67.949219 13.089844 67.882812 12.492188 C 67.820312 11.890625 68.164062 11.675781 68.484375 11.375 C 68.804688 11.078125 69.277344 10.433594 69.535156 9.683594 C 69.789062 8.933594 70.414062 8.292969 71.054688 8.550781 C 69.339844 3.128906 72.898438 0 75.46875 0 C 78.125 0 79.882812 1.734375 79.882812 4.5 C 79.882812 7.261719 79.175781 8.71875 78.019531 9.769531 C 78.8125 9.664062 79.453125 9.105469 79.625 8.546875 C 79.925781 8.761719 80.394531 9.296875 80.394531 9.296875 L 81.9375 10.539062 L 83.007812 11.054688 L 83.09375 12.039062 L 84.125 14.183594 L 84.339844 15.726562 L 84.9375 16.882812 L 84.507812 17.867188 L 84.9375 18.425781 L 85.164062 19.429688 C 86.863281 19.011719 92.996094 17.503906 94.613281 17.109375 C 94.78125 17.066406 94.917969 17.230469 94.855469 17.386719 L 94.074219 19.351562 C 94.027344 19.472656 93.933594 19.570312 93.820312 19.628906 L 92.371094 20.332031 L 93.015625 21.355469 C 93.066406 21.433594 93.054688 21.535156 92.992188 21.605469 L 91.34375 23.417969 L 92.160156 24.105469 C 92.257812 24.1875 92.328125 24.296875 92.363281 24.417969 L 92.714844 25.601562 L 94.382812 25.601562 C 94.460938 25.371094 94.652344 25.210938 94.878906 25.210938 C 95.175781 25.210938 95.414062 25.484375 95.414062 25.828125 C 95.414062 26.167969 95.175781 26.445312 94.878906 26.445312 C 94.652344 26.445312 94.460938 26.28125 94.382812 26.050781 L 92.847656 26.050781 L 93.722656 28.988281 C 93.742188 29.0625 93.6875 29.136719 93.609375 29.136719 L 93.070312 29.136719 C 93.035156 29.136719 93.003906 29.121094 92.980469 29.09375 L 90.5625 26.050781 L 89.375 26.050781 C 89.300781 26.253906 89.125 26.394531 88.925781 26.394531 C 88.652344 26.394531 88.429688 26.140625 88.429688 25.828125 C 88.429688 25.511719 88.652344 25.257812 88.925781 25.257812 C 89.125 25.257812 89.300781 25.402344 89.375 25.601562 L 90.203125 25.601562 L 89.351562 24.53125 L 87.550781 25.214844 L 86.4375 27.035156 L 82.878906 28.835938 C 83.273438 29.242188 84.253906 30.257812 84.601562 30.675781 C 85.753906 29.472656 87.222656 28.742188 88.824219 28.710938 C 88.859375 28.710938 88.894531 28.707031 88.929688 28.707031 Z M 88.929688 29.160156 C 87.328125 29.160156 85.863281 29.925781 84.742188 31.1875 C 85.257812 31.5 85.925781 31.902344 86.648438 32.335938 C 87.519531 31.171875 88.6875 30.460938 89.96875 30.460938 C 92.648438 30.460938 94.828125 33.578125 94.828125 37.40625 C 94.949219 34.882812 94.394531 32.949219 93.457031 31.59375 C 92.300781 30.089844 90.695312 29.160156 88.929688 29.160156 Z M 85.796875 22.238281 L 84.128906 24.316406 L 85.730469 23.632812 L 85.257812 23.546875 L 85.753906 22.882812 L 87.746094 21.960938 L 86.265625 21.9375 L 86.179688 21.402344 L 92.5 19.238281 L 93.101562 17.976562 L 85.285156 19.964844 Z M 86.308594 24.679688 L 82.289062 26.613281 L 82.152344 26.78125 L 82.492188 27.070312 C 83.644531 26.609375 85.796875 25.796875 85.796875 25.796875 L 85.453125 26.308594 L 83.0625 27.558594 L 83.371094 27.824219 L 85.921875 26.652344 L 86.78125 25.386719 L 85.964844 25.28125 L 90.335938 23.589844 L 92.222656 21.644531 C 92.371094 21.492188 92.394531 21.253906 92.277344 21.074219 L 91.902344 20.503906 L 89.457031 21.746094 L 89.84375 21.960938 L 86.929688 23.441406 L 86.308594 24.683594 Z M 79.582031 9.941406 C 79.132812 9.941406 78.210938 10.691406 77.652344 10.777344 C 77.652344 10.777344 77.976562 11.570312 78.402344 11.503906 C 78.644531 11.46875 79.195312 11.011719 79.625 11.207031 C 79.238281 12.578125 80.867188 12.171875 81.144531 12.597656 C 81.144531 12.597656 81.726562 12.210938 82.152344 12.382812 C 82.066406 11.699219 81.1875 11.417969 80.996094 10.839844 C 80.804688 10.261719 80.03125 9.941406 79.582031 9.941406 Z M 75.898438 19.195312 C 76.285156 19.195312 77.289062 19.710938 77.71875 20.160156 C 78.167969 19.882812 79.109375 18.039062 79.605469 17.484375 C 79.605469 17.484375 79.28125 16.003906 78.597656 15.382812 C 78.597656 15.382812 78.875 16.734375 78.765625 17.589844 C 78.554688 17.976562 78.167969 18.597656 77.609375 19.367188 C 77.609375 19.367188 76.410156 18.617188 75.832031 18.554688 C 75.308594 18.496094 71.15625 19.015625 69.339844 19.496094 C 70.441406 20.410156 71.550781 21.707031 71.871094 22.453125 L 72.066406 22.15625 C 72.148438 22.035156 72.308594 22 72.433594 22.074219 L 73.070312 22.46875 C 73.207031 22.550781 73.238281 22.734375 73.140625 22.863281 L 73.027344 23.011719 L 73.789062 23.433594 L 74.933594 22.539062 L 74.289062 22.539062 C 74.289062 22.539062 73.777344 22.023438 73.453125 21.789062 C 74.074219 21.726562 75.554688 21.191406 76.195312 20.632812 C 75.640625 20.097656 73.753906 19.730469 73.003906 19.519531 C 73.710938 19.476562 75.511719 19.199219 75.898438 19.199219 Z M 76.8125 25.660156 C 76.644531 25.042969 76.601562 24.304688 76.648438 23.78125 C 76.648438 23.78125 76.035156 24.308594 75.464844 24.640625 C 75.867188 24.9375 76.320312 25.28125 76.8125 25.660156 Z M 64.191406 33.292969 C 64.5625 33.355469 64.964844 33.558594 65.1875 33.835938 L 65.417969 33.101562 L 65.757812 32.03125 L 65.992188 31.289062 L 66.988281 28.117188 C 67.058594 27.890625 66.953125 27.652344 66.738281 27.558594 L 66.578125 27.488281 C 66.335938 27.386719 66.058594 27.511719 65.976562 27.757812 L 65.105469 30.46875 L 64.847656 31.269531 L 64.539062 32.222656 L 64.195312 33.292969 Z M 65.027344 38.050781 C 65.027344 37.511719 64.816406 37.078125 64.554688 37.078125 C 64.296875 37.078125 64.085938 37.511719 64.085938 38.050781 C 64.085938 38.585938 64.296875 39.019531 64.554688 39.019531 C 64.816406 39.019531 65.027344 38.585938 65.027344 38.050781 Z M 63.398438 27.132812 C 62.988281 27.410156 62.707031 27.175781 62.898438 26.722656 C 63.769531 24.695312 65.957031 22.046875 67.726562 20.167969 C 68.710938 20.824219 69.601562 21.734375 70.378906 22.890625 C 70.441406 22.980469 70.425781 23.066406 70.414062 23.113281 C 70.402344 23.15625 70.363281 23.238281 70.269531 23.28125 C 68.460938 24.066406 65.777344 25.507812 63.398438 27.132812 Z M 72.640625 1.972656 C 71.304688 3.59375 71.847656 5.097656 72.640625 5.097656 C 73.90625 5.097656 74.417969 4.171875 75.296875 2.914062 C 76.347656 1.414062 77.761719 1.136719 77.761719 1.136719 C 76.625 0.363281 74.054688 0.257812 72.640625 1.972656 Z M 73.203125 9.726562 C 72.589844 9.726562 72.140625 9.488281 71.804688 9.125 C 72.152344 9.722656 72.6875 10.15625 73.519531 10.15625 C 77.074219 10.15625 77.03125 6.234375 77.203125 4.371094 C 76.730469 4.808594 76.234375 5.160156 75.742188 5.445312 C 76.082031 5.507812 76.488281 5.546875 76.691406 5.421875 C 76.699219 5.621094 76.679688 5.929688 76.644531 6.292969 C 76.492188 7.144531 76.222656 8 75.699219 8.644531 C 75.449219 7.71875 75.140625 6.570312 74.941406 5.855469 C 74.738281 5.949219 74.539062 6.027344 74.34375 6.09375 L 75.144531 9.167969 C 74.859375 9.371094 74.519531 9.53125 74.121094 9.628906 C 73.875 8.507812 73.554688 7.066406 73.398438 6.347656 C 73.203125 6.382812 73.023438 6.40625 72.855469 6.417969 C 73.019531 7.148438 73.382812 8.605469 73.65625 9.703125 C 73.511719 9.714844 73.363281 9.726562 73.207031 9.726562 Z M 73.371094 18.230469 C 73.21875 18.039062 72.167969 16.945312 71.613281 16.261719 C 71.613281 16.261719 71.613281 15.511719 71.398438 15.191406 C 71.382812 15.695312 71.046875 15.984375 70.804688 16.125 C 70.855469 16.1875 70.90625 16.25 70.953125 16.3125 C 71.179688 16.617188 71.113281 17.058594 70.808594 17.296875 C 70.253906 17.726562 69.636719 18.269531 68.988281 18.890625 C 70.089844 18.703125 72.589844 18.28125 73.371094 18.230469 Z M 68.550781 13.199219 C 68.636719 13.714844 68.355469 14.070312 68.023438 14.445312 C 68.3125 14.507812 68.59375 14.597656 68.863281 14.707031 C 69.019531 14.308594 69.433594 13.636719 69.707031 13.347656 C 70.046875 12.984375 69.234375 12.898438 69.449219 12.554688 C 69.664062 12.210938 69.898438 11.78125 69.726562 11.332031 C 69.554688 10.882812 69.75 10.820312 70.132812 10.753906 C 70.519531 10.691406 70.585938 10.519531 70.710938 10.027344 C 70.839844 9.535156 71.183594 9.769531 71.570312 9.792969 C 71.570312 9.792969 71.332031 9.578125 71.164062 9.277344 C 70.691406 9.0625 70.242188 9.339844 70.21875 9.726562 C 70.199219 10.113281 69.8125 10.476562 69.8125 10.476562 C 69.8125 10.476562 69.40625 10.5625 69.382812 11.035156 C 69.363281 11.503906 69.039062 11.914062 68.675781 12.148438 C 68.3125 12.382812 68.441406 12.578125 68.546875 13.199219 Z M 67.519531 19.003906 C 65.765625 17.890625 63.152344 17.8125 61.960938 18.449219 C 61.988281 18.535156 61.980469 18.511719 62.007812 18.597656 C 62.539062 18.496094 63.089844 18.4375 63.652344 18.4375 C 64.96875 18.4375 66.339844 18.75 67.660156 19.539062 C 68.675781 18.480469 69.664062 17.566406 70.511719 16.910156 C 70.609375 16.835938 70.632812 16.695312 70.5625 16.601562 C 69.734375 15.484375 68.378906 14.8125 66.9375 14.8125 C 66.527344 14.8125 66.121094 14.867188 65.730469 14.96875 C 65.53125 15.019531 65.359375 15.136719 65.238281 15.300781 C 64.859375 15.8125 64.3125 16.566406 63.988281 17.074219 C 63.988281 17.074219 64.371094 17.355469 65.226562 16.839844 C 65.941406 16.410156 67 16.921875 67.53125 17.574219 C 67.679688 17.753906 67.949219 17.765625 68.101562 17.585938 L 68.632812 16.949219 C 68.839844 16.703125 68.859375 16.347656 68.675781 16.078125 C 68.578125 15.929688 68.453125 15.773438 68.3125 15.640625 C 68.933594 15.832031 69.769531 16.539062 69.769531 16.539062 Z M 59.828125 22.914062 C 59.828125 23.210938 60.035156 25.476562 60.710938 26.613281 C 60.441406 24.34375 60.554688 21.566406 61.230469 19.285156 C 60.9375 19.371094 60.652344 19.472656 60.378906 19.582031 C 60.210938 20.03125 59.941406 20.945312 59.894531 21.980469 C 59.683594 21.800781 59.734375 21.167969 59.304688 21.167969 C 59.058594 21.167969 58.746094 21.476562 58.746094 22.382812 C 58.746094 23.148438 59.046875 23.691406 59.367188 23.652344 C 59.625 23.621094 59.621094 23.09375 59.828125 22.914062 Z M 56.167969 38.050781 C 56.863281 38.050781 57.449219 37.523438 57.527344 36.828125 C 57.9375 33.296875 60.089844 30.59375 62.679688 30.59375 C 63.128906 30.59375 63.566406 30.671875 63.980469 30.828125 C 64.074219 30.476562 64.160156 30.160156 64.234375 29.894531 C 63.414062 29.441406 62.511719 29.195312 61.566406 29.195312 C 61.476562 29.195312 61.390625 29.195312 61.300781 29.203125 L 61.269531 29.273438 L 61.25 29.203125 C 58.019531 29.390625 55.363281 32.472656 54.808594 36.484375 C 54.695312 37.3125 55.332031 38.050781 56.167969 38.050781 Z M 63.730469 31.765625 C 63.394531 31.632812 63.042969 31.5625 62.679688 31.5625 C 61.886719 31.5625 61.144531 31.894531 60.511719 32.472656 C 60.902344 32.257812 61.320312 32.140625 61.757812 32.140625 C 62.371094 32.140625 62.949219 32.375 63.464844 32.78125 C 63.554688 32.433594 63.644531 32.09375 63.730469 31.765625 Z M 58.621094 39.972656 C 59.101562 42.03125 60.324219 43.5 61.757812 43.5 C 62.585938 43.5 63.339844 43.011719 63.925781 42.199219 C 63.691406 42.300781 63.441406 42.355469 63.183594 42.355469 C 61.648438 42.355469 60.402344 40.425781 60.402344 38.050781 C 60.402344 35.671875 61.648438 33.742188 63.183594 33.742188 C 63.195312 33.742188 63.203125 33.746094 63.214844 33.746094 C 63.253906 33.578125 63.300781 33.414062 63.34375 33.25 C 62.871094 32.835938 62.332031 32.597656 61.757812 32.597656 C 60.324219 32.597656 59.101562 34.066406 58.621094 36.125 C 58.496094 36.734375 58.429688 37.378906 58.429688 38.050781 C 58.429688 38.71875 58.496094 39.367188 58.621094 39.972656 Z M 62.679688 44.535156 C 65.023438 44.535156 66.925781 41.625 66.925781 38.050781 C 66.925781 36.417969 66.53125 34.929688 65.878906 33.785156 L 65.355469 35.351562 C 65.742188 36.089844 65.96875 37.027344 65.96875 38.050781 C 65.96875 39.511719 65.5 40.804688 64.777344 41.582031 C 64.089844 43.023438 62.992188 43.957031 61.757812 43.957031 C 61.320312 43.957031 60.902344 43.839844 60.511719 43.625 C 61.144531 44.203125 61.886719 44.535156 62.679688 44.535156 Z M 66.261719 32.632812 C 67.269531 33.992188 67.898438 35.917969 67.898438 38.050781 C 68.027344 35.40625 67.460938 33.371094 66.5 31.917969 Z M 82.171875 38.742188 L 81.382812 39.59375 L 72.789062 40.109375 C 72.367188 40.132812 72.058594 39.726562 72.195312 39.328125 C 72.644531 38.035156 73.449219 35.605469 73.46875 34.679688 C 72.441406 36.535156 70.527344 40.078125 70.097656 40.648438 C 69.84375 40.792969 69.398438 40.871094 69.050781 40.914062 C 69.121094 40.859375 69.191406 40.804688 69.253906 40.75 C 69.855469 40.234375 72.425781 35.347656 72.941406 33.765625 C 72.941406 33.765625 72.640625 31.964844 72.082031 30.550781 C 73.097656 31.078125 77.140625 34.664062 79.28125 36.761719 C 75.039062 30.765625 70.328125 27.824219 68.355469 27.550781 C 68.738281 26.519531 66.761719 26.375 64.960938 26.691406 C 66.835938 25.511719 68.753906 24.492188 70.183594 23.847656 C 73.546875 24.574219 77.539062 27.269531 78.769531 28.75 L 78.296875 30.164062 C 78.667969 31.011719 79.679688 35.433594 80.09375 37.257812 C 80.195312 37.714844 80.644531 38.003906 81.105469 37.902344 C 81.441406 37.828125 81.808594 37.734375 82.09375 37.628906 C 82.234375 37.578125 82.355469 37.527344 82.445312 37.472656 L 82.882812 37.765625 Z M 84.484375 37.8125 L 90.699219 38.058594 L 91.105469 38.949219 L 91.730469 38.960938 C 92.007812 38.96875 92.238281 38.753906 92.257812 38.480469 L 92.277344 38.195312 C 92.226562 38.222656 92.171875 38.242188 92.117188 38.242188 C 91.855469 38.242188 91.644531 37.914062 91.644531 37.511719 C 91.644531 37.105469 91.855469 36.777344 92.117188 36.777344 C 92.210938 36.777344 92.300781 36.824219 92.375 36.902344 L 92.429688 36.140625 C 92.433594 36.101562 92.414062 36.066406 92.378906 36.050781 L 84.753906 32.011719 C 84.890625 32.648438 85.15625 33.835938 85.347656 34.703125 C 85.390625 34.890625 85.386719 35.082031 85.34375 35.265625 C 85.269531 35.59375 85.210938 35.925781 85.171875 36.273438 C 85.164062 36.335938 85.148438 36.398438 85.132812 36.457031 L 85.488281 36.480469 L 86.054688 36.511719 L 88.980469 36.679688 L 89.207031 36.105469 L 88.125 34.933594 L 89.84375 35.824219 L 90.664062 36.25 L 90.523438 37.363281 L 89.582031 37.316406 L 86.019531 37.132812 L 85.414062 37.101562 L 85.378906 37.363281 Z M 87.644531 32.929688 C 88.683594 33.550781 89.753906 34.1875 90.617188 34.699219 C 90.859375 34.511719 91.128906 34.402344 91.414062 34.402344 C 91.488281 34.402344 91.5625 34.414062 91.636719 34.429688 C 91.066406 33.15625 90.148438 32.332031 89.109375 32.332031 C 88.582031 32.332031 88.082031 32.550781 87.644531 32.929688 Z M 86.1875 39.199219 C 86.636719 41.117188 87.777344 42.480469 89.109375 42.480469 C 90.148438 42.480469 91.066406 41.65625 91.636719 40.386719 C 91.5625 40.398438 91.488281 40.410156 91.414062 40.410156 C 90.726562 40.410156 90.128906 39.796875 89.808594 38.890625 L 86.128906 38.867188 C 86.148438 38.980469 86.167969 39.089844 86.1875 39.199219 Z M 89.96875 43.445312 C 92.148438 43.445312 93.925781 40.734375 93.925781 37.40625 C 93.925781 34.078125 92.148438 31.367188 89.96875 31.367188 C 89.230469 31.367188 88.539062 31.675781 87.949219 32.214844 C 88.3125 32.015625 88.703125 31.90625 89.109375 31.90625 C 90.40625 31.90625 91.539062 33.011719 92.148438 34.652344 C 92.800781 35.117188 93.261719 36.175781 93.261719 37.40625 C 93.261719 38.636719 92.800781 39.699219 92.148438 40.160156 C 91.539062 41.800781 90.40625 42.90625 89.109375 42.90625 C 88.703125 42.90625 88.3125 42.796875 87.949219 42.597656 C 88.539062 43.136719 89.230469 43.445312 89.96875 43.445312 Z M 67.96875 21.238281 C 68.300781 21.433594 69.082031 22.183594 69.46875 22.789062 C 69.5625 22.933594 69.5 23.128906 69.339844 23.195312 C 68.277344 23.652344 65.601562 25.050781 64.21875 25.929688 C 64.085938 26.015625 63.929688 25.863281 64.011719 25.730469 C 64.445312 25.027344 65.160156 24 65.769531 23.410156 C 66 24.523438 68.355469 23.140625 68.570312 22.710938 C 68.785156 22.28125 68.226562 21.640625 67.96875 21.238281 Z M 67.96875 21.238281 " fill-opacity="1" fill-rule="evenodd"/></g><g fill="#ffffff" fill-opacity="1"><g transform="translate(18.727692, 68.852806)"><g><path d="M 10.6875 -18.265625 L 13.703125 -18.265625 C 14.003906 -18.265625 14.15625 -18.113281 14.15625 -17.8125 L 14.15625 -0.453125 C 14.15625 -0.148438 14.003906 0 13.703125 0 L 11.578125 0 C 11.273438 0 11.125 -0.148438 11.125 -0.453125 L 11.125 -10.734375 L 10.953125 -10.734375 L 8.703125 -0.40625 C 8.640625 -0.132812 8.46875 0 8.1875 0 L 7.078125 0 C 6.816406 0 6.648438 -0.132812 6.578125 -0.40625 L 4.3125 -10.734375 L 4.15625 -10.734375 L 4.15625 -0.453125 C 4.15625 -0.148438 4.003906 0 3.703125 0 L 1.59375 0 C 1.289062 0 1.140625 -0.148438 1.140625 -0.453125 L 1.140625 -17.8125 C 1.140625 -18.113281 1.289062 -18.265625 1.59375 -18.265625 L 4.609375 -18.265625 C 4.878906 -18.265625 5.046875 -18.128906 5.109375 -17.859375 L 7.640625 -6.484375 L 10.1875 -17.859375 C 10.257812 -18.128906 10.425781 -18.265625 10.6875 -18.265625 Z M 10.6875 -18.265625 "/></g></g></g><g fill="#ffffff" fill-opacity="1"><g transform="translate(35.668053, 68.852806)"><g><path d="M 1.140625 -3.28125 L 1.140625 -12.6875 C 1.140625 -13.769531 1.421875 -14.585938 1.984375 -15.140625 C 2.546875 -15.703125 3.359375 -15.984375 4.421875 -15.984375 L 6.984375 -15.984375 C 8.066406 -15.984375 8.882812 -15.703125 9.4375 -15.140625 C 9.988281 -14.585938 10.265625 -13.769531 10.265625 -12.6875 L 10.265625 -3.28125 C 10.265625 -2.21875 9.988281 -1.40625 9.4375 -0.84375 C 8.882812 -0.28125 8.066406 0 6.984375 0 L 4.421875 0 C 3.359375 0 2.546875 -0.28125 1.984375 -0.84375 C 1.421875 -1.40625 1.140625 -2.21875 1.140625 -3.28125 Z M 5.015625 -2.9375 L 6.484375 -2.9375 C 7.085938 -2.9375 7.390625 -3.242188 7.390625 -3.859375 L 7.390625 -12.125 C 7.390625 -12.726562 7.085938 -13.03125 6.484375 -13.03125 L 5.015625 -13.03125 C 4.410156 -13.03125 4.109375 -12.726562 4.109375 -12.125 L 4.109375 -3.859375 C 4.109375 -3.242188 4.410156 -2.9375 5.015625 -2.9375 Z M 5.015625 -2.9375 "/></g></g></g><g fill="#ffffff" fill-opacity="1"><g transform="translate(48.727246, 68.852806)"><g><path d="M 9.453125 -15.984375 L 1.046875 -15.984375 C 0.804688 -15.984375 0.6875 -15.859375 0.6875 -15.609375 L 0.6875 -13.328125 C 0.6875 -13.085938 0.804688 -12.96875 1.046875 -12.96875 L 3.703125 -12.96875 L 3.703125 -0.359375 C 3.703125 -0.117188 3.820312 0 4.0625 0 L 6.4375 0 C 6.675781 0 6.796875 -0.117188 6.796875 -0.359375 L 6.796875 -12.96875 L 9.453125 -12.96875 C 9.691406 -12.96875 9.8125 -13.085938 9.8125 -13.328125 L 9.8125 -15.609375 C 9.8125 -15.859375 9.691406 -15.984375 9.453125 -15.984375 Z M 9.453125 -15.984375 "/></g></g></g><g fill="#ffffff" fill-opacity="1"><g transform="translate(60.873219, 68.852806)"><g><path d="M 1.140625 -3.28125 L 1.140625 -12.6875 C 1.140625 -13.769531 1.421875 -14.585938 1.984375 -15.140625 C 2.546875 -15.703125 3.359375 -15.984375 4.421875 -15.984375 L 6.984375 -15.984375 C 8.066406 -15.984375 8.882812 -15.703125 9.4375 -15.140625 C 9.988281 -14.585938 10.265625 -13.769531 10.265625 -12.6875 L 10.265625 -3.28125 C 10.265625 -2.21875 9.988281 -1.40625 9.4375 -0.84375 C 8.882812 -0.28125 8.066406 0 6.984375 0 L 4.421875 0 C 3.359375 0 2.546875 -0.28125 1.984375 -0.84375 C 1.421875 -1.40625 1.140625 -2.21875 1.140625 -3.28125 Z M 5.015625 -2.9375 L 6.484375 -2.9375 C 7.085938 -2.9375 7.390625 -3.242188 7.390625 -3.859375 L 7.390625 -12.125 C 7.390625 -12.726562 7.085938 -13.03125 6.484375 -13.03125 L 5.015625 -13.03125 C 4.410156 -13.03125 4.109375 -12.726562 4.109375 -12.125 L 4.109375 -3.859375 C 4.109375 -3.242188 4.410156 -2.9375 5.015625 -2.9375 Z M 5.015625 -2.9375 "/></g></g></g><g fill="#ffffff" fill-opacity="1"><g transform="translate(73.932411, 68.852806)"><g><path d="M 10.265625 -12.6875 L 10.265625 -8.109375 C 10.265625 -6.785156 9.84375 -5.851562 9 -5.3125 L 10.1875 -0.40625 C 10.257812 -0.132812 10.148438 0 9.859375 0 L 7.625 0 C 7.414062 0 7.285156 -0.101562 7.234375 -0.3125 L 6.140625 -4.8125 L 4.109375 -4.8125 L 4.109375 -0.359375 C 4.109375 -0.117188 3.988281 0 3.75 0 L 1.5 0 C 1.257812 0 1.140625 -0.117188 1.140625 -0.359375 L 1.140625 -15.609375 C 1.140625 -15.859375 1.257812 -15.984375 1.5 -15.984375 L 6.984375 -15.984375 C 8.066406 -15.984375 8.882812 -15.703125 9.4375 -15.140625 C 9.988281 -14.585938 10.265625 -13.769531 10.265625 -12.6875 Z M 4.109375 -7.765625 L 6.390625 -7.765625 C 7.003906 -7.765625 7.3125 -8.066406 7.3125 -8.671875 L 7.3125 -12.125 C 7.3125 -12.726562 7.003906 -13.03125 6.390625 -13.03125 L 4.109375 -13.03125 Z M 4.109375 -7.765625 "/></g></g></g><g fill="#ffffff" fill-opacity="1"><g transform="translate(86.991604, 68.852806)"><g><path d="M 10.296875 -14.96875 L 10.296875 -12.515625 C 10.296875 -12.265625 10.175781 -12.140625 9.9375 -12.140625 L 7.640625 -12.140625 C 7.398438 -12.140625 7.28125 -12.265625 7.28125 -12.515625 L 7.28125 -14.34375 C 7.28125 -14.945312 6.976562 -15.25 6.375 -15.25 L 5.1875 -15.25 C 4.570312 -15.25 4.265625 -14.945312 4.265625 -14.34375 L 4.265625 -3.921875 C 4.265625 -3.316406 4.570312 -3.015625 5.1875 -3.015625 L 6.375 -3.015625 C 6.976562 -3.015625 7.28125 -3.316406 7.28125 -3.921875 L 7.28125 -5.75 C 7.28125 -6 7.398438 -6.125 7.640625 -6.125 L 9.9375 -6.125 C 10.175781 -6.125 10.296875 -6 10.296875 -5.75 L 10.296875 -3.28125 C 10.296875 -2.21875 10.015625 -1.40625 9.453125 -0.84375 C 8.890625 -0.28125 8.078125 0 7.015625 0 L 4.453125 0 C 3.390625 0 2.570312 -0.28125 2 -0.84375 C 1.425781 -1.40625 1.140625 -2.21875 1.140625 -3.28125 L 1.140625 -14.96875 C 1.140625 -16.050781 1.425781 -16.867188 2 -17.421875 C 2.570312 -17.984375 3.390625 -18.265625 4.453125 -18.265625 L 7.015625 -18.265625 C 8.078125 -18.265625 8.890625 -17.984375 9.453125 -17.421875 C 10.015625 -16.867188 10.296875 -16.050781 10.296875 -14.96875 Z M 10.296875 -14.96875 "/></g></g></g><g fill="#ffffff" fill-opacity="1"><g transform="translate(100.073623, 68.852806)"><g><path d="M 1.5 0 L 3.875 0 C 4.125 0 4.25 -0.117188 4.25 -0.359375 L 4.25 -15.609375 C 4.25 -15.859375 4.125 -15.984375 3.875 -15.984375 L 1.5 -15.984375 C 1.257812 -15.984375 1.140625 -15.859375 1.140625 -15.609375 L 1.140625 -0.359375 C 1.140625 -0.117188 1.257812 0 1.5 0 Z M 1.5 0 "/></g></g></g><g fill="#ffffff" fill-opacity="1"><g transform="translate(107.105586, 68.852806)"><g><path d="M 9.453125 -15.984375 L 1.046875 -15.984375 C 0.804688 -15.984375 0.6875 -15.859375 0.6875 -15.609375 L 0.6875 -13.328125 C 0.6875 -13.085938 0.804688 -12.96875 1.046875 -12.96875 L 3.703125 -12.96875 L 3.703125 -0.359375 C 3.703125 -0.117188 3.820312 0 4.0625 0 L 6.4375 0 C 6.675781 0 6.796875 -0.117188 6.796875 -0.359375 L 6.796875 -12.96875 L 9.453125 -12.96875 C 9.691406 -12.96875 9.8125 -13.085938 9.8125 -13.328125 L 9.8125 -15.609375 C 9.8125 -15.859375 9.691406 -15.984375 9.453125 -15.984375 Z M 9.453125 -15.984375 "/></g></g></g><g fill="#ffffff" fill-opacity="1"><g transform="translate(119.25156, 68.852806)"><g><path d="M 9.078125 -15.984375 L 11.375 -15.984375 C 11.539062 -15.984375 11.660156 -15.929688 11.734375 -15.828125 C 11.804688 -15.734375 11.804688 -15.609375 11.734375 -15.453125 L 7.5625 -5.984375 L 7.5625 -0.453125 C 7.5625 -0.148438 7.40625 0 7.09375 0 L 4.90625 0 C 4.601562 0 4.453125 -0.148438 4.453125 -0.453125 L 4.453125 -5.984375 L 0.28125 -15.453125 C 0.21875 -15.609375 0.21875 -15.734375 0.28125 -15.828125 C 0.351562 -15.929688 0.472656 -15.984375 0.640625 -15.984375 L 2.921875 -15.984375 C 3.179688 -15.984375 3.359375 -15.859375 3.453125 -15.609375 L 6 -9.75 L 8.5625 -15.609375 C 8.65625 -15.859375 8.828125 -15.984375 9.078125 -15.984375 Z M 9.078125 -15.984375 "/></g></g></g></svg>